# xmcd CD database file
#
# Track frame offsets:
#	150
#	10948
#	33456
#	43801
#	52181
#	74839
#	86201
#	101028
#	121624
#	134928
#	148118
#	164556
#	177991
#	190005
#	207772
#	229871
#	241701
#	258109
#	274196
#
# Disc length: 3924 seconds
#
# Revision: 0
# Processed by: cddbd v1.5.2PL0 Copyright (c) Steve Scherf et al.
# Submitted via: CDex 1.51
#
DISCID=210f5213
DTITLE=Pine Valley Cosmonauts - (2009) Executioner's Last Songs, Favorites
DYEAR=2009
DGENRE=Country
TTITLE0=Bad News
TTITLE1=Gallows Pole
TTITLE2=Gary Gilmore's Eyes
TTITLE3=Dang Me
TTITLE4=Banks Of The Ohio
TTITLE5=Forever To Burn
TTITLE6=Homicide
TTITLE7=Tom Dooley
TTITLE8=Long Black Veil
TTITLE9=Death Row
TTITLE10=Hangin' Me Tonight
TTITLE11=Horses
TTITLE12=John Hardy
TTITLE13=Judgement Day
TTITLE14=Oh Death
TTITLE15=Angel Of Death
TTITLE16=Hanged Man
TTITLE17=25 Minutes To Go
TTITLE18=Walls Of Time
EXTD=YEAR: 2009
EXTT0=
EXTT1=
EXTT2=
EXTT3=
EXTT4=
EXTT5=
EXTT6=
EXTT7=
EXTT8=
EXTT9=
EXTT10=
EXTT11=
EXTT12=
EXTT13=
EXTT14=
EXTT15=
EXTT16=
EXTT17=
EXTT18=
PLAYORDER=
